%TF.GenerationSoftware,KiCad,Pcbnew,8.0.1-rc1*%
%TF.CreationDate,2024-06-04T01:21:06-05:00*%
%TF.ProjectId,555Timer_Breakout,35353554-696d-4657-925f-427265616b6f,rev?*%
%TF.SameCoordinates,Original*%
%TF.FileFunction,Copper,L1,Top*%
%TF.FilePolarity,Positive*%
%FSLAX46Y46*%
G04 Gerber Fmt 4.6, Leading zero omitted, Abs format (unit mm)*
G04 Created by KiCad (PCBNEW 8.0.1-rc1) date 2024-06-04 01:21:06*
%MOMM*%
%LPD*%
G01*
G04 APERTURE LIST*
G04 Aperture macros list*
%AMRoundRect*
0 Rectangle with rounded corners*
0 $1 Rounding radius*
0 $2 $3 $4 $5 $6 $7 $8 $9 X,Y pos of 4 corners*
0 Add a 4 corners polygon primitive as box body*
4,1,4,$2,$3,$4,$5,$6,$7,$8,$9,$2,$3,0*
0 Add four circle primitives for the rounded corners*
1,1,$1+$1,$2,$3*
1,1,$1+$1,$4,$5*
1,1,$1+$1,$6,$7*
1,1,$1+$1,$8,$9*
0 Add four rect primitives between the rounded corners*
20,1,$1+$1,$2,$3,$4,$5,0*
20,1,$1+$1,$4,$5,$6,$7,0*
20,1,$1+$1,$6,$7,$8,$9,0*
20,1,$1+$1,$8,$9,$2,$3,0*%
G04 Aperture macros list end*
%TA.AperFunction,ComponentPad*%
%ADD10R,1.700000X1.700000*%
%TD*%
%TA.AperFunction,SMDPad,CuDef*%
%ADD11RoundRect,0.150000X-0.825000X-0.150000X0.825000X-0.150000X0.825000X0.150000X-0.825000X0.150000X0*%
%TD*%
%TA.AperFunction,SMDPad,CuDef*%
%ADD12RoundRect,0.250000X0.450000X-0.350000X0.450000X0.350000X-0.450000X0.350000X-0.450000X-0.350000X0*%
%TD*%
%TA.AperFunction,SMDPad,CuDef*%
%ADD13RoundRect,0.250000X-0.350000X-0.450000X0.350000X-0.450000X0.350000X0.450000X-0.350000X0.450000X0*%
%TD*%
%TA.AperFunction,SMDPad,CuDef*%
%ADD14RoundRect,0.249999X0.512501X1.425001X-0.512501X1.425001X-0.512501X-1.425001X0.512501X-1.425001X0*%
%TD*%
%TA.AperFunction,SMDPad,CuDef*%
%ADD15RoundRect,0.250000X0.550000X-1.050000X0.550000X1.050000X-0.550000X1.050000X-0.550000X-1.050000X0*%
%TD*%
%TA.AperFunction,ViaPad*%
%ADD16C,0.600000*%
%TD*%
%TA.AperFunction,Conductor*%
%ADD17C,0.200000*%
%TD*%
G04 APERTURE END LIST*
D10*
%TO.P,J2,1,Pin_1*%
%TO.N,9V*%
X147000000Y-55000000D03*
%TD*%
%TO.P,J1,1,Pin_1*%
%TO.N,GND*%
X134000000Y-55000000D03*
%TD*%
D11*
%TO.P,U1,1,GND*%
%TO.N,GND*%
X142050000Y-62730000D03*
%TO.P,U1,2,TR*%
%TO.N,Net-(U1-THR)*%
X142050000Y-64000000D03*
%TO.P,U1,3,Q*%
%TO.N,Net-(U1-Q)*%
X142050000Y-65270000D03*
%TO.P,U1,4,R*%
%TO.N,9V*%
X142050000Y-66540000D03*
%TO.P,U1,5,CV*%
%TO.N,unconnected-(U1-CV-Pad5)*%
X147000000Y-66540000D03*
%TO.P,U1,6,THR*%
%TO.N,Net-(U1-THR)*%
X147000000Y-65270000D03*
%TO.P,U1,7,DIS*%
%TO.N,Net-(U1-DIS)*%
X147000000Y-64000000D03*
%TO.P,U1,8,VCC*%
%TO.N,9V*%
X147000000Y-62730000D03*
%TD*%
D12*
%TO.P,R3,1*%
%TO.N,Net-(U1-THR)*%
X154000000Y-66000000D03*
%TO.P,R3,2*%
%TO.N,Net-(U1-DIS)*%
X154000000Y-64000000D03*
%TD*%
D13*
%TO.P,R2,1*%
%TO.N,9V*%
X145000000Y-72000000D03*
%TO.P,R2,2*%
%TO.N,Net-(U1-DIS)*%
X147000000Y-72000000D03*
%TD*%
D12*
%TO.P,R1,1*%
%TO.N,Net-(U1-Q)*%
X128500000Y-69500000D03*
%TO.P,R1,2*%
%TO.N,Net-(D1-A)*%
X128500000Y-67500000D03*
%TD*%
D14*
%TO.P,D1,1,K*%
%TO.N,GND*%
X126955000Y-62500000D03*
%TO.P,D1,2,A*%
%TO.N,Net-(D1-A)*%
X120980000Y-62500000D03*
%TD*%
D15*
%TO.P,C1,1*%
%TO.N,Net-(U1-THR)*%
X134000000Y-66100000D03*
%TO.P,C1,2*%
%TO.N,GND*%
X134000000Y-62500000D03*
%TD*%
D16*
%TO.N,9V*%
X142000000Y-69500000D03*
X147000000Y-59500000D03*
%TO.N,Net-(U1-THR)*%
X151000000Y-66000000D03*
X139000000Y-64000000D03*
%TD*%
D17*
%TO.N,Net-(U1-DIS)*%
X156500000Y-64000000D02*
X154000000Y-64000000D01*
X156500000Y-72000000D02*
X156500000Y-64000000D01*
X147000000Y-72000000D02*
X156500000Y-72000000D01*
%TO.N,GND*%
X134000000Y-62500000D02*
X134000000Y-55000000D01*
%TO.N,9V*%
X147000000Y-55000000D02*
X147000000Y-59500000D01*
X142050000Y-69550000D02*
X142050000Y-71950000D01*
X142000000Y-69500000D02*
X142050000Y-69550000D01*
X142050000Y-69450000D02*
X142000000Y-69500000D01*
X147000000Y-62730000D02*
X147000000Y-59500000D01*
%TO.N,Net-(U1-THR)*%
X150270000Y-65270000D02*
X151000000Y-66000000D01*
X147000000Y-65270000D02*
X150270000Y-65270000D01*
X154000000Y-66000000D02*
X151000000Y-66000000D01*
X139000000Y-64000000D02*
X136100000Y-64000000D01*
X136100000Y-64000000D02*
X134000000Y-66100000D01*
X142050000Y-64000000D02*
X139000000Y-64000000D01*
%TO.N,9V*%
X142000000Y-72000000D02*
X145000000Y-72000000D01*
X142050000Y-71950000D02*
X142000000Y-72000000D01*
X142050000Y-66540000D02*
X142050000Y-69450000D01*
%TO.N,Net-(U1-DIS)*%
X154000000Y-64000000D02*
X147000000Y-64000000D01*
%TO.N,Net-(U1-Q)*%
X139230000Y-65270000D02*
X142050000Y-65270000D01*
X135000000Y-69500000D02*
X139230000Y-65270000D01*
X128500000Y-69500000D02*
X135000000Y-69500000D01*
%TO.N,GND*%
X141820000Y-62500000D02*
X142050000Y-62730000D01*
X134000000Y-62500000D02*
X141820000Y-62500000D01*
X126955000Y-62500000D02*
X134000000Y-62500000D01*
%TO.N,Net-(D1-A)*%
X125980000Y-67500000D02*
X128500000Y-67500000D01*
X120980000Y-62500000D02*
X125980000Y-67500000D01*
%TD*%
%TA.AperFunction,Conductor*%
%TO.N,GND*%
G36*
X132593039Y-54519685D02*
G01*
X132638794Y-54572489D01*
X132650000Y-54624000D01*
X132650000Y-54750000D01*
X133566988Y-54750000D01*
X133534075Y-54807007D01*
X133500000Y-54934174D01*
X133500000Y-55065826D01*
X133534075Y-55192993D01*
X133566988Y-55250000D01*
X132650000Y-55250000D01*
X132650000Y-55897844D01*
X132656401Y-55957372D01*
X132656403Y-55957379D01*
X132706645Y-56092086D01*
X132706649Y-56092093D01*
X132792809Y-56207187D01*
X132792812Y-56207190D01*
X132907906Y-56293350D01*
X132907913Y-56293354D01*
X133042620Y-56343596D01*
X133042627Y-56343598D01*
X133102155Y-56349999D01*
X133102172Y-56350000D01*
X133750000Y-56350000D01*
X133750000Y-55433012D01*
X133807007Y-55465925D01*
X133934174Y-55500000D01*
X134065826Y-55500000D01*
X134192993Y-55465925D01*
X134250000Y-55433012D01*
X134250000Y-56350000D01*
X134897828Y-56350000D01*
X134897844Y-56349999D01*
X134957372Y-56343598D01*
X134957379Y-56343596D01*
X135092086Y-56293354D01*
X135092093Y-56293350D01*
X135207187Y-56207190D01*
X135207190Y-56207187D01*
X135293350Y-56092093D01*
X135293354Y-56092086D01*
X135343596Y-55957379D01*
X135343598Y-55957372D01*
X135349999Y-55897844D01*
X135350000Y-55897827D01*
X135350000Y-55250000D01*
X134433012Y-55250000D01*
X134465925Y-55192993D01*
X134500000Y-55065826D01*
X134500000Y-54934174D01*
X134465925Y-54807007D01*
X134433012Y-54750000D01*
X135350000Y-54750000D01*
X135350000Y-54624000D01*
X135369685Y-54556961D01*
X135422489Y-54511206D01*
X135474000Y-54500000D01*
X145525500Y-54500000D01*
X145592539Y-54519685D01*
X145638294Y-54572489D01*
X145649500Y-54624000D01*
X145649500Y-55897870D01*
X145649501Y-55897876D01*
X145655908Y-55957483D01*
X145706202Y-56092328D01*
X145706206Y-56092335D01*
X145792452Y-56207544D01*
X145792455Y-56207547D01*
X145907664Y-56293793D01*
X145907671Y-56293797D01*
X145952618Y-56310561D01*
X146042517Y-56344091D01*
X146102127Y-56350500D01*
X146275500Y-56350499D01*
X146342539Y-56370183D01*
X146388294Y-56422987D01*
X146399500Y-56474499D01*
X146399500Y-58917587D01*
X146379815Y-58984626D01*
X146372450Y-58994896D01*
X146370186Y-58997734D01*
X146274211Y-59150476D01*
X146214631Y-59320745D01*
X146214630Y-59320750D01*
X146194435Y-59499996D01*
X146194435Y-59500003D01*
X146214630Y-59679249D01*
X146214631Y-59679254D01*
X146274211Y-59849523D01*
X146370185Y-60002263D01*
X146372445Y-60005097D01*
X146373334Y-60007275D01*
X146373889Y-60008158D01*
X146373734Y-60008255D01*
X146398855Y-60069783D01*
X146399500Y-60082412D01*
X146399500Y-61805500D01*
X146379815Y-61872539D01*
X146327011Y-61918294D01*
X146275500Y-61929500D01*
X146109298Y-61929500D01*
X146072432Y-61932401D01*
X146072426Y-61932402D01*
X145914606Y-61978254D01*
X145914603Y-61978255D01*
X145773137Y-62061917D01*
X145773129Y-62061923D01*
X145656923Y-62178129D01*
X145656917Y-62178137D01*
X145573255Y-62319603D01*
X145573254Y-62319606D01*
X145527402Y-62477426D01*
X145527401Y-62477432D01*
X145524500Y-62514298D01*
X145524500Y-62945701D01*
X145527401Y-62982567D01*
X145527402Y-62982573D01*
X145573254Y-63140393D01*
X145573255Y-63140396D01*
X145656917Y-63281862D01*
X145661702Y-63288031D01*
X145659256Y-63289927D01*
X145685857Y-63338642D01*
X145680873Y-63408334D01*
X145660069Y-63440703D01*
X145661702Y-63441969D01*
X145656917Y-63448137D01*
X145573255Y-63589603D01*
X145573254Y-63589606D01*
X145527402Y-63747426D01*
X145527401Y-63747432D01*
X145524500Y-63784298D01*
X145524500Y-64215701D01*
X145527401Y-64252567D01*
X145527402Y-64252573D01*
X145573254Y-64410393D01*
X145573255Y-64410396D01*
X145656917Y-64551862D01*
X145661702Y-64558031D01*
X145659256Y-64559927D01*
X145685857Y-64608642D01*
X145680873Y-64678334D01*
X145660069Y-64710703D01*
X145661702Y-64711969D01*
X145656917Y-64718137D01*
X145573255Y-64859603D01*
X145573254Y-64859606D01*
X145527402Y-65017426D01*
X145527401Y-65017432D01*
X145524500Y-65054298D01*
X145524500Y-65485701D01*
X145527401Y-65522567D01*
X145527402Y-65522573D01*
X145573254Y-65680393D01*
X145573255Y-65680396D01*
X145656917Y-65821862D01*
X145661702Y-65828031D01*
X145659256Y-65829927D01*
X145685857Y-65878642D01*
X145680873Y-65948334D01*
X145660069Y-65980703D01*
X145661702Y-65981969D01*
X145656917Y-65988137D01*
X145573255Y-66129603D01*
X145573254Y-66129606D01*
X145527402Y-66287426D01*
X145527401Y-66287432D01*
X145524500Y-66324298D01*
X145524500Y-66755701D01*
X145527401Y-66792567D01*
X145527402Y-66792573D01*
X145573254Y-66950393D01*
X145573255Y-66950396D01*
X145656917Y-67091862D01*
X145656923Y-67091870D01*
X145773129Y-67208076D01*
X145773133Y-67208079D01*
X145773135Y-67208081D01*
X145914602Y-67291744D01*
X145952639Y-67302795D01*
X146072426Y-67337597D01*
X146072429Y-67337597D01*
X146072431Y-67337598D01*
X146109306Y-67340500D01*
X146109314Y-67340500D01*
X147890686Y-67340500D01*
X147890694Y-67340500D01*
X147927569Y-67337598D01*
X147927571Y-67337597D01*
X147927573Y-67337597D01*
X147969191Y-67325505D01*
X148085398Y-67291744D01*
X148226865Y-67208081D01*
X148343081Y-67091865D01*
X148426744Y-66950398D01*
X148472598Y-66792569D01*
X148475500Y-66755694D01*
X148475500Y-66324306D01*
X148472598Y-66287431D01*
X148426744Y-66129602D01*
X148417871Y-66114598D01*
X148384175Y-66057620D01*
X148366992Y-65989896D01*
X148389152Y-65923634D01*
X148443619Y-65879871D01*
X148490907Y-65870500D01*
X149969903Y-65870500D01*
X150036942Y-65890185D01*
X150057584Y-65906819D01*
X150169298Y-66018533D01*
X150202783Y-66079856D01*
X150204837Y-66092330D01*
X150214630Y-66179249D01*
X150274210Y-66349521D01*
X150346888Y-66465187D01*
X150370184Y-66502262D01*
X150497738Y-66629816D01*
X150650478Y-66725789D01*
X150735919Y-66755686D01*
X150820745Y-66785368D01*
X150820750Y-66785369D01*
X150999996Y-66805565D01*
X151000000Y-66805565D01*
X151000004Y-66805565D01*
X151179249Y-66785369D01*
X151179252Y-66785368D01*
X151179255Y-66785368D01*
X151349522Y-66725789D01*
X151502262Y-66629816D01*
X151502267Y-66629810D01*
X151505097Y-66627555D01*
X151507275Y-66626665D01*
X151508158Y-66626111D01*
X151508255Y-66626265D01*
X151569783Y-66601145D01*
X151582412Y-66600500D01*
X152754092Y-66600500D01*
X152821131Y-66620185D01*
X152859636Y-66664271D01*
X152861395Y-66663187D01*
X152865185Y-66669331D01*
X152865186Y-66669334D01*
X152957288Y-66818656D01*
X153081344Y-66942712D01*
X153230666Y-67034814D01*
X153397203Y-67089999D01*
X153499991Y-67100500D01*
X154500008Y-67100499D01*
X154500016Y-67100498D01*
X154500019Y-67100498D01*
X154556302Y-67094748D01*
X154602797Y-67089999D01*
X154769334Y-67034814D01*
X154918656Y-66942712D01*
X155042712Y-66818656D01*
X155134814Y-66669334D01*
X155189999Y-66502797D01*
X155200500Y-66400009D01*
X155200499Y-65599992D01*
X155189999Y-65497203D01*
X155134814Y-65330666D01*
X155042712Y-65181344D01*
X154949049Y-65087681D01*
X154915564Y-65026358D01*
X154920548Y-64956666D01*
X154949049Y-64912319D01*
X154964165Y-64897203D01*
X155042712Y-64818656D01*
X155134814Y-64669334D01*
X155134814Y-64669332D01*
X155138605Y-64663187D01*
X155140399Y-64664293D01*
X155179687Y-64619663D01*
X155245908Y-64600500D01*
X155775500Y-64600500D01*
X155842539Y-64620185D01*
X155888294Y-64672989D01*
X155899500Y-64724500D01*
X155899500Y-71275500D01*
X155879815Y-71342539D01*
X155827011Y-71388294D01*
X155775500Y-71399500D01*
X148180301Y-71399500D01*
X148113262Y-71379815D01*
X148067507Y-71327011D01*
X148062595Y-71314504D01*
X148034814Y-71230666D01*
X147942712Y-71081344D01*
X147818656Y-70957288D01*
X147669334Y-70865186D01*
X147502797Y-70810001D01*
X147502795Y-70810000D01*
X147400010Y-70799500D01*
X146599998Y-70799500D01*
X146599980Y-70799501D01*
X146497203Y-70810000D01*
X146497200Y-70810001D01*
X146330668Y-70865185D01*
X146330663Y-70865187D01*
X146181342Y-70957289D01*
X146087681Y-71050951D01*
X146026358Y-71084436D01*
X145956666Y-71079452D01*
X145912319Y-71050951D01*
X145818657Y-70957289D01*
X145818656Y-70957288D01*
X145669334Y-70865186D01*
X145502797Y-70810001D01*
X145502795Y-70810000D01*
X145400010Y-70799500D01*
X144599998Y-70799500D01*
X144599980Y-70799501D01*
X144497203Y-70810000D01*
X144497200Y-70810001D01*
X144330668Y-70865185D01*
X144330663Y-70865187D01*
X144181342Y-70957289D01*
X144057289Y-71081342D01*
X143965187Y-71230663D01*
X143965185Y-71230668D01*
X143937405Y-71314504D01*
X143897632Y-71371949D01*
X143833116Y-71398772D01*
X143819699Y-71399500D01*
X142774500Y-71399500D01*
X142707461Y-71379815D01*
X142661706Y-71327011D01*
X142650500Y-71275500D01*
X142650500Y-70005067D01*
X142669507Y-69939094D01*
X142725788Y-69849524D01*
X142785368Y-69679254D01*
X142785369Y-69679249D01*
X142805565Y-69500003D01*
X142805565Y-69499996D01*
X142785369Y-69320750D01*
X142785366Y-69320737D01*
X142725790Y-69150481D01*
X142725789Y-69150478D01*
X142694061Y-69099983D01*
X142669506Y-69060903D01*
X142650500Y-68994931D01*
X142650500Y-67464500D01*
X142670185Y-67397461D01*
X142722989Y-67351706D01*
X142774500Y-67340500D01*
X142940686Y-67340500D01*
X142940694Y-67340500D01*
X142977569Y-67337598D01*
X142977571Y-67337597D01*
X142977573Y-67337597D01*
X143019191Y-67325505D01*
X143135398Y-67291744D01*
X143276865Y-67208081D01*
X143393081Y-67091865D01*
X143476744Y-66950398D01*
X143522598Y-66792569D01*
X143525500Y-66755694D01*
X143525500Y-66324306D01*
X143522598Y-66287431D01*
X143476744Y-66129602D01*
X143393081Y-65988135D01*
X143393078Y-65988132D01*
X143388298Y-65981969D01*
X143390750Y-65980066D01*
X143364155Y-65931421D01*
X143369104Y-65861726D01*
X143389940Y-65829304D01*
X143388298Y-65828031D01*
X143393075Y-65821870D01*
X143393081Y-65821865D01*
X143476744Y-65680398D01*
X143522598Y-65522569D01*
X143525500Y-65485694D01*
X143525500Y-65054306D01*
X143522598Y-65017431D01*
X143517531Y-64999991D01*
X143476745Y-64859606D01*
X143476744Y-64859603D01*
X143476744Y-64859602D01*
X143393081Y-64718135D01*
X143393078Y-64718132D01*
X143388298Y-64711969D01*
X143390750Y-64710066D01*
X143364155Y-64661421D01*
X143369104Y-64591726D01*
X143389940Y-64559304D01*
X143388298Y-64558031D01*
X143393075Y-64551870D01*
X143393081Y-64551865D01*
X143476744Y-64410398D01*
X143522598Y-64252569D01*
X143525500Y-64215694D01*
X143525500Y-63784306D01*
X143522598Y-63747431D01*
X143509601Y-63702697D01*
X143476745Y-63589606D01*
X143476744Y-63589603D01*
X143476744Y-63589602D01*
X143393081Y-63448135D01*
X143393078Y-63448132D01*
X143388298Y-63441969D01*
X143390635Y-63440155D01*
X143363798Y-63391050D01*
X143368756Y-63321356D01*
X143389554Y-63288998D01*
X143387903Y-63287717D01*
X143392686Y-63281550D01*
X143476281Y-63140198D01*
X143522100Y-62982486D01*
X143522295Y-62980001D01*
X143522295Y-62980000D01*
X140577705Y-62980000D01*
X140577704Y-62980001D01*
X140577899Y-62982486D01*
X140623718Y-63140198D01*
X140666406Y-63212379D01*
X140683589Y-63280103D01*
X140661429Y-63346365D01*
X140606963Y-63390129D01*
X140559674Y-63399500D01*
X139582412Y-63399500D01*
X139515373Y-63379815D01*
X139505097Y-63372445D01*
X139502263Y-63370185D01*
X139502262Y-63370184D01*
X139424553Y-63321356D01*
X139349523Y-63274211D01*
X139179254Y-63214631D01*
X139179249Y-63214630D01*
X139000004Y-63194435D01*
X138999996Y-63194435D01*
X138820750Y-63214630D01*
X138820745Y-63214631D01*
X138650476Y-63274211D01*
X138497736Y-63370185D01*
X138494903Y-63372445D01*
X138492724Y-63373334D01*
X138491842Y-63373889D01*
X138491744Y-63373734D01*
X138430217Y-63398855D01*
X138417588Y-63399500D01*
X136020940Y-63399500D01*
X135980019Y-63410464D01*
X135980019Y-63410465D01*
X135942751Y-63420451D01*
X135868214Y-63440423D01*
X135868209Y-63440426D01*
X135731290Y-63519475D01*
X135731282Y-63519481D01*
X135661162Y-63589602D01*
X135619480Y-63631284D01*
X135619478Y-63631286D01*
X135548067Y-63702697D01*
X135506548Y-63744216D01*
X135445225Y-63777700D01*
X135375533Y-63772716D01*
X135319600Y-63730844D01*
X135295183Y-63665380D01*
X135295509Y-63643929D01*
X135299999Y-63599981D01*
X135300000Y-63599973D01*
X135300000Y-62750000D01*
X132700001Y-62750000D01*
X132700001Y-63599986D01*
X132710494Y-63702697D01*
X132765641Y-63869119D01*
X132765643Y-63869124D01*
X132857684Y-64018345D01*
X132981654Y-64142315D01*
X133065719Y-64194167D01*
X133112443Y-64246115D01*
X133123666Y-64315078D01*
X133095822Y-64379160D01*
X133065719Y-64405244D01*
X132981347Y-64457285D01*
X132981343Y-64457288D01*
X132857289Y-64581342D01*
X132765187Y-64730663D01*
X132765185Y-64730668D01*
X132745697Y-64789480D01*
X132710001Y-64897203D01*
X132710001Y-64897204D01*
X132710000Y-64897204D01*
X132699500Y-64999983D01*
X132699500Y-67200001D01*
X132699501Y-67200018D01*
X132710000Y-67302796D01*
X132710001Y-67302799D01*
X132746515Y-67412989D01*
X132765186Y-67469334D01*
X132857288Y-67618656D01*
X132981344Y-67742712D01*
X133130666Y-67834814D01*
X133297203Y-67889999D01*
X133399991Y-67900500D01*
X134600008Y-67900499D01*
X134702797Y-67889999D01*
X134869334Y-67834814D01*
X135018656Y-67742712D01*
X135142712Y-67618656D01*
X135234814Y-67469334D01*
X135289999Y-67302797D01*
X135300500Y-67200009D01*
X135300499Y-65700096D01*
X135320184Y-65633058D01*
X135336818Y-65612416D01*
X136312416Y-64636819D01*
X136373739Y-64603334D01*
X136400097Y-64600500D01*
X138417588Y-64600500D01*
X138484627Y-64620185D01*
X138494903Y-64627555D01*
X138497736Y-64629814D01*
X138497738Y-64629816D01*
X138625455Y-64710066D01*
X138650478Y-64725789D01*
X138667550Y-64731763D01*
X138724326Y-64772485D01*
X138750074Y-64837437D01*
X138736618Y-64905999D01*
X138714277Y-64936486D01*
X134787584Y-68863181D01*
X134726261Y-68896666D01*
X134699903Y-68899500D01*
X129745908Y-68899500D01*
X129678869Y-68879815D01*
X129640363Y-68835728D01*
X129638605Y-68836813D01*
X129634812Y-68830663D01*
X129542712Y-68681344D01*
X129449049Y-68587681D01*
X129415564Y-68526358D01*
X129420548Y-68456666D01*
X129449049Y-68412319D01*
X129542712Y-68318656D01*
X129634814Y-68169334D01*
X129689999Y-68002797D01*
X129700500Y-67900009D01*
X129700499Y-67099992D01*
X129699669Y-67091870D01*
X129689999Y-66997203D01*
X129689998Y-66997200D01*
X129674489Y-66950398D01*
X129634814Y-66830666D01*
X129542712Y-66681344D01*
X129418656Y-66557288D01*
X129269334Y-66465186D01*
X129102797Y-66410001D01*
X129102795Y-66410000D01*
X129000010Y-66399500D01*
X127999998Y-66399500D01*
X127999980Y-66399501D01*
X127897203Y-66410000D01*
X127897200Y-66410001D01*
X127730668Y-66465185D01*
X127730663Y-66465187D01*
X127581342Y-66557289D01*
X127457289Y-66681342D01*
X127457288Y-66681344D01*
X127372594Y-66818657D01*
X127361395Y-66836813D01*
X127359600Y-66835706D01*
X127320313Y-66880337D01*
X127254092Y-66899500D01*
X126280097Y-66899500D01*
X126213058Y-66879815D01*
X126192416Y-66863181D01*
X122279319Y-62950084D01*
X122245834Y-62888761D01*
X122243000Y-62862403D01*
X122243000Y-62750000D01*
X125692501Y-62750000D01*
X125692501Y-63974986D01*
X125702994Y-64077696D01*
X125702994Y-64077698D01*
X125758140Y-64244119D01*
X125758145Y-64244130D01*
X125850180Y-64393340D01*
X125850183Y-64393344D01*
X125974155Y-64517316D01*
X125974159Y-64517319D01*
X126123369Y-64609354D01*
X126123380Y-64609359D01*
X126289802Y-64664505D01*
X126392519Y-64674999D01*
X126704999Y-64674999D01*
X126705000Y-64674998D01*
X126705000Y-62750000D01*
X127205000Y-62750000D01*
X127205000Y-64674999D01*
X127517472Y-64674999D01*
X127517486Y-64674998D01*
X127620196Y-64664505D01*
X127620198Y-64664505D01*
X127786619Y-64609359D01*
X127786630Y-64609354D01*
X127935840Y-64517319D01*
X127935844Y-64517316D01*
X128059816Y-64393344D01*
X128059819Y-64393340D01*
X128151854Y-64244130D01*
X128151859Y-64244119D01*
X128207005Y-64077697D01*
X128217499Y-63974986D01*
X128217500Y-63974973D01*
X128217500Y-62750000D01*
X127205000Y-62750000D01*
X126705000Y-62750000D01*
X125692501Y-62750000D01*
X122243000Y-62750000D01*
X122243000Y-62479998D01*
X140577704Y-62479998D01*
X140577705Y-62480000D01*
X141800000Y-62480000D01*
X141800000Y-61930000D01*
X142300000Y-61930000D01*
X142300000Y-62480000D01*
X143522295Y-62480000D01*
X143522295Y-62479998D01*
X143522100Y-62477513D01*
X143476281Y-62319801D01*
X143392685Y-62178447D01*
X143392678Y-62178438D01*
X143276561Y-62062321D01*
X143276552Y-62062314D01*
X143135196Y-61978717D01*
X143135193Y-61978716D01*
X142977495Y-61932900D01*
X142977489Y-61932899D01*
X142940649Y-61930000D01*
X142300000Y-61930000D01*
X141800000Y-61930000D01*
X141159350Y-61930000D01*
X141122510Y-61932899D01*
X141122504Y-61932900D01*
X140964806Y-61978716D01*
X140964803Y-61978717D01*
X140823447Y-62062314D01*
X140823438Y-62062321D01*
X140707321Y-62178438D01*
X140707314Y-62178447D01*
X140623718Y-62319801D01*
X140577899Y-62477513D01*
X140577704Y-62479998D01*
X122243000Y-62479998D01*
X122243000Y-62250000D01*
X125692500Y-62250000D01*
X126705000Y-62250000D01*
X126705000Y-60325000D01*
X127205000Y-60325000D01*
X127205000Y-62250000D01*
X128217499Y-62250000D01*
X132700000Y-62250000D01*
X133750000Y-62250000D01*
X133750000Y-60700000D01*
X134250000Y-60700000D01*
X134250000Y-62250000D01*
X135299999Y-62250000D01*
X135299999Y-61400028D01*
X135299998Y-61400013D01*
X135289505Y-61297302D01*
X135234358Y-61130880D01*
X135234356Y-61130875D01*
X135142315Y-60981654D01*
X135018345Y-60857684D01*
X134869124Y-60765643D01*
X134869119Y-60765641D01*
X134702697Y-60710494D01*
X134702690Y-60710493D01*
X134599986Y-60700000D01*
X134250000Y-60700000D01*
X133750000Y-60700000D01*
X133400028Y-60700000D01*
X133400012Y-60700001D01*
X133297302Y-60710494D01*
X133130880Y-60765641D01*
X133130875Y-60765643D01*
X132981654Y-60857684D01*
X132857684Y-60981654D01*
X132765643Y-61130875D01*
X132765641Y-61130880D01*
X132710494Y-61297302D01*
X132710493Y-61297309D01*
X132700000Y-61400013D01*
X132700000Y-62250000D01*
X128217499Y-62250000D01*
X128217499Y-61025028D01*
X128217498Y-61025013D01*
X128207005Y-60922303D01*
X128207005Y-60922301D01*
X128151859Y-60755880D01*
X128151854Y-60755869D01*
X128059819Y-60606659D01*
X128059816Y-60606655D01*
X127935844Y-60482683D01*
X127935840Y-60482680D01*
X127786630Y-60390645D01*
X127786619Y-60390640D01*
X127620197Y-60335494D01*
X127517486Y-60325000D01*
X127205000Y-60325000D01*
X126705000Y-60325000D01*
X126392528Y-60325000D01*
X126392512Y-60325001D01*
X126289803Y-60335494D01*
X126289801Y-60335494D01*
X126123380Y-60390640D01*
X126123369Y-60390645D01*
X125974159Y-60482680D01*
X125974155Y-60482683D01*
X125850183Y-60606655D01*
X125850180Y-60606659D01*
X125758145Y-60755869D01*
X125758140Y-60755880D01*
X125702994Y-60922302D01*
X125692500Y-61025013D01*
X125692500Y-62250000D01*
X122243000Y-62250000D01*
X122243000Y-61024995D01*
X122242999Y-61024982D01*
X122232499Y-60922203D01*
X122232499Y-60922202D01*
X122177314Y-60755665D01*
X122085212Y-60606344D01*
X121961156Y-60482288D01*
X121868390Y-60425070D01*
X121811837Y-60390187D01*
X121811832Y-60390185D01*
X121810363Y-60389698D01*
X121645298Y-60335001D01*
X121645296Y-60335000D01*
X121542517Y-60324500D01*
X121542510Y-60324500D01*
X120417490Y-60324500D01*
X120417482Y-60324500D01*
X120314703Y-60335000D01*
X120314702Y-60335001D01*
X120232169Y-60362349D01*
X120148167Y-60390185D01*
X120148162Y-60390187D01*
X119998842Y-60482289D01*
X119874789Y-60606342D01*
X119782687Y-60755662D01*
X119782685Y-60755667D01*
X119754849Y-60839669D01*
X119727501Y-60922202D01*
X119727501Y-60922203D01*
X119727500Y-60922203D01*
X119717000Y-61024982D01*
X119717000Y-63975017D01*
X119727500Y-64077796D01*
X119782685Y-64244332D01*
X119782687Y-64244337D01*
X119787765Y-64252569D01*
X119874788Y-64393656D01*
X119998844Y-64517712D01*
X120148165Y-64609814D01*
X120314702Y-64664999D01*
X120417490Y-64675500D01*
X120417495Y-64675500D01*
X121542505Y-64675500D01*
X121542510Y-64675500D01*
X121645298Y-64664999D01*
X121811835Y-64609814D01*
X121961156Y-64517712D01*
X121967129Y-64511738D01*
X122028447Y-64478249D01*
X122098139Y-64483227D01*
X122142497Y-64511732D01*
X125495139Y-67864374D01*
X125495149Y-67864385D01*
X125499479Y-67868715D01*
X125499480Y-67868716D01*
X125611284Y-67980520D01*
X125649870Y-68002797D01*
X125698095Y-68030639D01*
X125698097Y-68030641D01*
X125736151Y-68052611D01*
X125748215Y-68059577D01*
X125900943Y-68100501D01*
X125900946Y-68100501D01*
X126066653Y-68100501D01*
X126066669Y-68100500D01*
X127254092Y-68100500D01*
X127321131Y-68120185D01*
X127359636Y-68164271D01*
X127361395Y-68163187D01*
X127365185Y-68169331D01*
X127365186Y-68169334D01*
X127457288Y-68318656D01*
X127457289Y-68318657D01*
X127550951Y-68412319D01*
X127584436Y-68473642D01*
X127579452Y-68543334D01*
X127550951Y-68587681D01*
X127457289Y-68681342D01*
X127365187Y-68830663D01*
X127365185Y-68830668D01*
X127343316Y-68896666D01*
X127310001Y-68997203D01*
X127310001Y-68997204D01*
X127310000Y-68997204D01*
X127299500Y-69099983D01*
X127299500Y-69900001D01*
X127299501Y-69900019D01*
X127310000Y-70002796D01*
X127310001Y-70002799D01*
X127353126Y-70132940D01*
X127365186Y-70169334D01*
X127457288Y-70318656D01*
X127581344Y-70442712D01*
X127730666Y-70534814D01*
X127897203Y-70589999D01*
X127999991Y-70600500D01*
X129000008Y-70600499D01*
X129000016Y-70600498D01*
X129000019Y-70600498D01*
X129056302Y-70594748D01*
X129102797Y-70589999D01*
X129269334Y-70534814D01*
X129418656Y-70442712D01*
X129542712Y-70318656D01*
X129634814Y-70169334D01*
X129634815Y-70169331D01*
X129638605Y-70163187D01*
X129640399Y-70164293D01*
X129679687Y-70119663D01*
X129745908Y-70100500D01*
X134913331Y-70100500D01*
X134913347Y-70100501D01*
X134920943Y-70100501D01*
X135079054Y-70100501D01*
X135079057Y-70100501D01*
X135231785Y-70059577D01*
X135318387Y-70009577D01*
X135330131Y-70002797D01*
X135368709Y-69980524D01*
X135368708Y-69980524D01*
X135368716Y-69980520D01*
X135480520Y-69868716D01*
X135480520Y-69868714D01*
X135490724Y-69858511D01*
X135490727Y-69858506D01*
X139442416Y-65906819D01*
X139503739Y-65873334D01*
X139530097Y-65870500D01*
X140559093Y-65870500D01*
X140626132Y-65890185D01*
X140671887Y-65942989D01*
X140681831Y-66012147D01*
X140665825Y-66057620D01*
X140623257Y-66129599D01*
X140623254Y-66129606D01*
X140577402Y-66287426D01*
X140577401Y-66287432D01*
X140574500Y-66324298D01*
X140574500Y-66755701D01*
X140577401Y-66792567D01*
X140577402Y-66792573D01*
X140623254Y-66950393D01*
X140623255Y-66950396D01*
X140706917Y-67091862D01*
X140706923Y-67091870D01*
X140823129Y-67208076D01*
X140823133Y-67208079D01*
X140823135Y-67208081D01*
X140964602Y-67291744D01*
X141002639Y-67302795D01*
X141122426Y-67337597D01*
X141122429Y-67337597D01*
X141122431Y-67337598D01*
X141159306Y-67340500D01*
X141325500Y-67340500D01*
X141392539Y-67360185D01*
X141438294Y-67412989D01*
X141449500Y-67464500D01*
X141449500Y-68867060D01*
X141429815Y-68934099D01*
X141413181Y-68954741D01*
X141370184Y-68997737D01*
X141274211Y-69150476D01*
X141214631Y-69320745D01*
X141214630Y-69320750D01*
X141194435Y-69499996D01*
X141194435Y-69500003D01*
X141214630Y-69679249D01*
X141214631Y-69679254D01*
X141274211Y-69849523D01*
X141370184Y-70002262D01*
X141413181Y-70045259D01*
X141446666Y-70106582D01*
X141449500Y-70132940D01*
X141449500Y-71721636D01*
X141441834Y-71760179D01*
X141442527Y-71760365D01*
X141440424Y-71768213D01*
X141440423Y-71768215D01*
X141399499Y-71920943D01*
X141399499Y-71920945D01*
X141399499Y-72079054D01*
X141399498Y-72079054D01*
X141440423Y-72231785D01*
X141469358Y-72281900D01*
X141469359Y-72281904D01*
X141469360Y-72281904D01*
X141519480Y-72368716D01*
X141631284Y-72480520D01*
X141631286Y-72480521D01*
X141631290Y-72480524D01*
X141681610Y-72509576D01*
X141681615Y-72509578D01*
X141768209Y-72559574D01*
X141768210Y-72559575D01*
X141768212Y-72559575D01*
X141768215Y-72559577D01*
X141920943Y-72600501D01*
X141920946Y-72600501D01*
X142086653Y-72600501D01*
X142086669Y-72600500D01*
X143819699Y-72600500D01*
X143886738Y-72620185D01*
X143932493Y-72672989D01*
X143937403Y-72685492D01*
X143965186Y-72769334D01*
X144057288Y-72918656D01*
X144181344Y-73042712D01*
X144330666Y-73134814D01*
X144497203Y-73189999D01*
X144599991Y-73200500D01*
X145400008Y-73200499D01*
X145400016Y-73200498D01*
X145400019Y-73200498D01*
X145456302Y-73194748D01*
X145502797Y-73189999D01*
X145669334Y-73134814D01*
X145818656Y-73042712D01*
X145912319Y-72949049D01*
X145973642Y-72915564D01*
X146043334Y-72920548D01*
X146087681Y-72949049D01*
X146181344Y-73042712D01*
X146330666Y-73134814D01*
X146497203Y-73189999D01*
X146599991Y-73200500D01*
X147400008Y-73200499D01*
X147400016Y-73200498D01*
X147400019Y-73200498D01*
X147456302Y-73194748D01*
X147502797Y-73189999D01*
X147669334Y-73134814D01*
X147818656Y-73042712D01*
X147942712Y-72918656D01*
X148034814Y-72769334D01*
X148062595Y-72685495D01*
X148102368Y-72628051D01*
X148166884Y-72601228D01*
X148180301Y-72600500D01*
X156579055Y-72600500D01*
X156579057Y-72600500D01*
X156731784Y-72559577D01*
X156868716Y-72480520D01*
X156980520Y-72368716D01*
X157059577Y-72231784D01*
X157100500Y-72079057D01*
X157100500Y-63920943D01*
X157059577Y-63768216D01*
X157059573Y-63768209D01*
X156980524Y-63631290D01*
X156980518Y-63631282D01*
X156868717Y-63519481D01*
X156868709Y-63519475D01*
X156731790Y-63440426D01*
X156731786Y-63440424D01*
X156731784Y-63440423D01*
X156579057Y-63399500D01*
X156579056Y-63399500D01*
X155245908Y-63399500D01*
X155178869Y-63379815D01*
X155140363Y-63335728D01*
X155138605Y-63336813D01*
X155134814Y-63330666D01*
X155042712Y-63181344D01*
X154918656Y-63057288D01*
X154797523Y-62982573D01*
X154769336Y-62965187D01*
X154769331Y-62965185D01*
X154710532Y-62945701D01*
X154602797Y-62910001D01*
X154602795Y-62910000D01*
X154500010Y-62899500D01*
X153499998Y-62899500D01*
X153499980Y-62899501D01*
X153397203Y-62910000D01*
X153397200Y-62910001D01*
X153230668Y-62965185D01*
X153230663Y-62965187D01*
X153081342Y-63057289D01*
X152957289Y-63181342D01*
X152936756Y-63214632D01*
X152867441Y-63327011D01*
X152861395Y-63336813D01*
X152859600Y-63335706D01*
X152820313Y-63380337D01*
X152754092Y-63399500D01*
X148490907Y-63399500D01*
X148423868Y-63379815D01*
X148378113Y-63327011D01*
X148368169Y-63257853D01*
X148384175Y-63212380D01*
X148405973Y-63175518D01*
X148426744Y-63140398D01*
X148472598Y-62982569D01*
X148475500Y-62945694D01*
X148475500Y-62514306D01*
X148472598Y-62477431D01*
X148426744Y-62319602D01*
X148343081Y-62178135D01*
X148343079Y-62178133D01*
X148343076Y-62178129D01*
X148226870Y-62061923D01*
X148226862Y-62061917D01*
X148148681Y-62015681D01*
X148085398Y-61978256D01*
X148085397Y-61978255D01*
X148085396Y-61978255D01*
X148085393Y-61978254D01*
X147927573Y-61932402D01*
X147927567Y-61932401D01*
X147890701Y-61929500D01*
X147890694Y-61929500D01*
X147724500Y-61929500D01*
X147657461Y-61909815D01*
X147611706Y-61857011D01*
X147600500Y-61805500D01*
X147600500Y-60082412D01*
X147620185Y-60015373D01*
X147627555Y-60005097D01*
X147629810Y-60002267D01*
X147629816Y-60002262D01*
X147725789Y-59849522D01*
X147785368Y-59679255D01*
X147805565Y-59500000D01*
X147785368Y-59320745D01*
X147725789Y-59150478D01*
X147629816Y-58997738D01*
X147629814Y-58997736D01*
X147629813Y-58997734D01*
X147627550Y-58994896D01*
X147626659Y-58992715D01*
X147626111Y-58991842D01*
X147626264Y-58991745D01*
X147601144Y-58930209D01*
X147600500Y-58917587D01*
X147600500Y-56474499D01*
X147620185Y-56407460D01*
X147672989Y-56361705D01*
X147724500Y-56350499D01*
X147897871Y-56350499D01*
X147897872Y-56350499D01*
X147957483Y-56344091D01*
X148092331Y-56293796D01*
X148207546Y-56207546D01*
X148293796Y-56092331D01*
X148344091Y-55957483D01*
X148350500Y-55897873D01*
X148350499Y-54623999D01*
X148370184Y-54556961D01*
X148422987Y-54511206D01*
X148474499Y-54500000D01*
X157376000Y-54500000D01*
X157443039Y-54519685D01*
X157488794Y-54572489D01*
X157500000Y-54624000D01*
X157500000Y-75379139D01*
X157480315Y-75446178D01*
X157427511Y-75491933D01*
X157379178Y-75503098D01*
X118627178Y-76496739D01*
X118559656Y-76478780D01*
X118512563Y-76427166D01*
X118500000Y-76372780D01*
X118500000Y-54624000D01*
X118519685Y-54556961D01*
X118572489Y-54511206D01*
X118624000Y-54500000D01*
X132526000Y-54500000D01*
X132593039Y-54519685D01*
G37*
%TD.AperFunction*%
%TD*%
M02*
